<svg width="29" height="29" viewBox="0 0 29 29" fill="none" xmlns="http://www.w3.org/2000/svg">
<path d="M28.8572 14.1576C28.8572 6.35772 22.5356 0.0361328 14.7356 0.0361328C6.93572 0.0361328 0.614136 6.35772 0.614136 14.1576C0.614136 20.7771 5.17605 26.3374 11.3266 27.8654V18.4713H8.41406V14.1576H11.3266V12.2987C11.3266 7.49406 13.5 5.26551 18.2219 5.26551C19.1155 5.26551 20.6601 5.44202 21.2944 5.61854V9.52402C20.9635 9.49093 20.3843 9.46886 19.6616 9.46886C17.3448 9.46886 16.4512 10.3459 16.4512 12.6241V14.1576H21.0627L20.2684 18.4713H16.4457V28.1743C23.4402 27.3304 28.8572 21.3784 28.8572 14.1576Z" fill="#286971"/>
</svg>
