<svg width="30" height="36" viewBox="0 0 30 36" fill="none" xmlns="http://www.w3.org/2000/svg">
<g clip-path="url(#clip0_105_1882)">
<path d="M15.113 10.0336C11.1035 10.0336 7.86943 13.5002 7.86943 17.7978C7.86943 22.0955 11.1035 25.5621 15.113 25.5621C19.1225 25.5621 22.3566 22.0955 22.3566 17.7978C22.3566 13.5002 19.1225 10.0336 15.113 10.0336ZM15.113 22.8456C12.522 22.8456 10.4037 20.5819 10.4037 17.7978C10.4037 15.0138 12.5157 12.7501 15.113 12.7501C17.7104 12.7501 19.8223 15.0138 19.8223 17.7978C19.8223 20.5819 17.7041 22.8456 15.113 22.8456ZM24.3424 9.71604C24.3424 10.7229 23.5859 11.527 22.6529 11.527C21.7136 11.527 20.9634 10.7161 20.9634 9.71604C20.9634 8.71595 21.7199 7.90506 22.6529 7.90506C23.5859 7.90506 24.3424 8.71595 24.3424 9.71604ZM29.14 11.554C29.0328 9.12815 28.5158 6.9793 26.8578 5.20887C25.2061 3.43845 23.2014 2.88434 20.9381 2.76271C18.6056 2.6208 11.6142 2.6208 9.28158 2.76271C7.02466 2.87758 5.01991 3.43169 3.3619 5.20212C1.70388 6.97255 1.19324 9.12139 1.07976 11.5473C0.947371 14.0475 0.947371 21.5414 1.07976 24.0416C1.18693 26.4675 1.70388 28.6164 3.3619 30.3868C5.01991 32.1572 7.01836 32.7113 9.28158 32.833C11.6142 32.9749 18.6056 32.9749 20.9381 32.833C23.2014 32.7181 25.2061 32.164 26.8578 30.3868C28.5095 28.6164 29.0265 26.4675 29.14 24.0416C29.2723 21.5414 29.2723 14.0543 29.14 11.554ZM26.1265 26.7243C25.6348 28.0488 24.6829 29.0691 23.4409 29.603C21.5812 30.3936 17.1682 30.2111 15.113 30.2111C13.0578 30.2111 8.63855 30.3868 6.7851 29.603C5.54947 29.0759 4.59753 28.0555 4.09949 26.7243C3.3619 24.7309 3.53211 20.0007 3.53211 17.7978C3.53211 15.5949 3.3682 10.858 4.09949 8.87137C4.59123 7.54692 5.54317 6.52656 6.7851 5.99273C8.64486 5.20212 13.0578 5.38457 15.113 5.38457C17.1682 5.38457 21.5875 5.20887 23.4409 5.99273C24.6766 6.5198 25.6285 7.54016 26.1265 8.87137C26.8641 10.8648 26.6939 15.5949 26.6939 17.7978C26.6939 20.0007 26.8641 24.7377 26.1265 26.7243Z" fill="#286971"/>
</g>
<defs>
<clipPath id="clip0_105_1882">
<rect width="28.243" height="34.5977" fill="white" transform="translate(0.985229 0.505737)"/>
</clipPath>
</defs>
</svg>
