<svg width="99" height="40" viewBox="0 0 99 40" fill="none" xmlns="http://www.w3.org/2000/svg">
<g clip-path="url(#clip0_194_98)">
<path d="M6.87741 26.6826C6.28604 27.3696 5.98816 28.2348 5.98816 29.2826C5.98816 30.1609 6.20281 30.8783 6.6321 31.4348C7.06139 31.9913 7.59581 32.2696 8.23537 32.2696C8.74789 32.2696 9.25603 32.0783 9.76856 31.6913C10.2811 31.3044 10.7367 30.7826 11.1353 30.1174C11.5208 29.4565 11.9106 28.4609 12.3136 27.1348C11.385 26.1522 10.3512 25.6565 9.22099 25.6565C8.25289 25.6565 7.47316 26 6.88179 26.6826H6.87741Z" fill="#3A4344"/>
<path d="M0 0V40H19.2743V0H0ZM15.6911 34.8043C15.3538 35.3174 14.8018 35.5739 14.0352 35.5739C13.2686 35.5739 12.7649 35.2783 12.4758 34.6913C12.1823 34.1043 12.0377 33.1478 12.0377 31.8174C11.4901 32.9739 10.8199 33.9087 10.027 34.6261C9.23416 35.3435 8.35367 35.7 7.38558 35.7C6.29044 35.7 5.42748 35.2739 4.79668 34.4174C4.16588 33.5609 3.85049 32.3957 3.85049 30.9174C3.85049 29.4391 4.11332 28.0304 4.64336 26.6826C5.17341 25.3348 5.89619 24.2435 6.82049 23.4087C7.7404 22.5739 8.76106 22.1565 9.87372 22.1565C10.8769 22.1565 11.7442 22.5 12.4758 23.1826C12.4407 21.4304 12.3619 20.0261 12.2436 18.9783C12.1691 18.313 12.0333 17.6783 11.8493 17.0739C10.7235 17.8565 9.45757 18.2478 8.04704 18.2478C6.48319 18.2478 5.26102 17.7652 4.38491 16.8043C3.50881 15.8435 3.07075 14.5 3.07075 12.7783C3.07075 11.2522 3.39053 9.83913 4.03009 8.53478C4.66965 7.23043 5.53261 6.2 6.62336 5.43478C7.71412 4.67391 8.89686 4.2913 10.176 4.2913C11.4551 4.2913 12.4013 4.61739 13.1416 5.26957C13.8819 5.92174 14.2542 6.78696 14.2542 7.86957C14.2542 8.73043 14.0089 9.52609 13.5139 10.2565C13.0189 10.987 12.3575 11.5652 11.5208 11.9957C10.6885 12.4261 9.77734 12.6435 8.78734 12.6435C8.20912 12.6435 7.65279 12.5652 7.11836 12.413C6.58394 12.2609 6.12836 12.0391 5.7604 11.7522C5.7823 12.7696 6.10646 13.587 6.73288 14.2043C7.35929 14.8217 8.16969 15.1304 9.15969 15.1304C9.75544 15.1304 10.3687 15.013 10.9995 14.7826C11.1353 14.7348 11.2623 14.6783 11.3894 14.6217C11.4989 14.4043 11.6654 14.2 11.9019 14C12.34 13.6348 12.778 13.4565 13.2161 13.4565C13.2336 13.4565 13.2511 13.4609 13.273 13.4609C13.3256 13.4522 13.3781 13.4391 13.4263 13.4391C13.6322 13.4391 13.8031 13.513 13.9345 13.6565C13.9739 13.7 14.0046 13.7435 14.0308 13.7913C14.2718 14.0304 14.4514 14.4 14.5696 14.9C14.7974 15.8609 14.9113 17.3087 14.9113 19.2304C14.9113 20.6435 14.8675 21.887 14.7755 22.9696C14.6835 24.0478 14.5477 25.413 14.3638 27.0609C14.1798 28.4957 14.0922 29.4348 14.0922 29.887C14.0922 30.613 14.2367 31.213 14.5302 31.6826C14.8237 32.1522 15.2311 32.4522 15.7612 32.5826C16.0546 32.6478 16.1992 32.8696 16.1992 33.2565C16.1992 33.7696 16.0284 34.2826 15.6911 34.7957V34.8043Z" fill="#3A4344"/>
<path d="M8.51139 10.4652C9.2517 10.4652 9.86936 10.3 10.3644 9.96956C10.8594 9.63913 11.1047 9.21739 11.1047 8.70869C11.1047 8.2913 10.9382 7.96087 10.6097 7.73043C10.2811 7.5 9.82555 7.38261 9.2517 7.38261C8.46759 7.38261 7.80175 7.6 7.24542 8.03043C6.68909 8.46087 6.28608 9.06522 6.04077 9.83478C6.32989 10.0348 6.69785 10.187 7.15343 10.3C7.60462 10.413 8.0602 10.4652 8.51139 10.4652Z" fill="#3A4344"/>
</g>
<path d="M31.4487 6.96348H41.3102V9.34261H34.0981V12.9739H40.9317V15.353H34.0981V19.36H41.6886V21.7391H31.4487V6.96348Z" fill="#3A4344"/>
<path d="M57.2552 10.4278C56.7085 9.84348 56.1758 9.45391 55.6572 9.25913C55.1525 9.06435 54.6409 8.96695 54.1222 8.96695C53.3513 8.96695 52.6504 9.10609 52.0196 9.38435C51.4028 9.64869 50.8701 10.0243 50.4216 10.5113C49.973 10.9843 49.6225 11.5409 49.3702 12.1809C49.1319 12.8209 49.0128 13.5096 49.0128 14.247C49.0128 15.04 49.1319 15.7704 49.3702 16.4383C49.6225 17.1061 49.973 17.6835 50.4216 18.1704C50.8701 18.6574 51.4028 19.04 52.0196 19.3183C52.6504 19.5965 53.3513 19.7357 54.1222 19.7357C54.725 19.7357 55.3067 19.5965 55.8674 19.3183C56.4422 19.0261 56.9748 18.567 57.4655 17.9409L59.6522 19.4852C58.9794 20.4035 58.1593 21.0713 57.1921 21.4887C56.2249 21.9061 55.1946 22.1148 54.1012 22.1148C52.9518 22.1148 51.8934 21.9339 50.9262 21.5722C49.973 21.1965 49.1459 20.6748 48.4451 20.007C47.7582 19.3252 47.2185 18.5113 46.826 17.5652C46.4335 16.6191 46.2373 15.5687 46.2373 14.4139C46.2373 13.2313 46.4335 12.16 46.826 11.2C47.2185 10.2261 47.7582 9.39826 48.4451 8.71652C49.1459 8.03478 49.973 7.51304 50.9262 7.1513C51.8934 6.77565 52.9518 6.58782 54.1012 6.58782C55.1105 6.58782 56.0427 6.76869 56.8977 7.13043C57.7668 7.47826 58.5729 8.07652 59.3158 8.92522L57.2552 10.4278Z" fill="#3A4344"/>
<path d="M64.1639 6.96348H66.8132V12.8487H73.773V6.96348H76.4224V21.7391H73.773V15.2278H66.8132V21.7391H64.1639V6.96348Z" fill="#3A4344"/>
<path d="M81.6834 14.4139C81.6834 13.2313 81.8797 12.16 82.2722 11.2C82.6647 10.2261 83.2044 9.39826 83.8912 8.71652C84.5921 8.03478 85.4192 7.51304 86.3724 7.1513C87.3396 6.77565 88.3979 6.58782 89.5474 6.58782C90.7108 6.57391 91.7762 6.74782 92.7434 7.10956C93.7106 7.45739 94.5447 7.97217 95.2456 8.65391C95.9464 9.33565 96.4931 10.1565 96.8856 11.1165C97.2781 12.0765 97.4744 13.1478 97.4744 14.3304C97.4744 15.4852 97.2781 16.5357 96.8856 17.4817C96.4931 18.4278 95.9464 19.2417 95.2456 19.9235C94.5447 20.6052 93.7106 21.1409 92.7434 21.5304C91.7762 21.9061 90.7108 22.1009 89.5474 22.1148C88.3979 22.1148 87.3396 21.9339 86.3724 21.5722C85.4192 21.1965 84.5921 20.6748 83.8912 20.007C83.2044 19.3252 82.6647 18.5113 82.2722 17.5652C81.8797 16.6191 81.6834 15.5687 81.6834 14.4139ZM84.4589 14.247C84.4589 15.04 84.5781 15.7704 84.8164 16.4383C85.0687 17.1061 85.4192 17.6835 85.8677 18.1704C86.3163 18.6574 86.849 19.04 87.4657 19.3183C88.0965 19.5965 88.7974 19.7357 89.5684 19.7357C90.3394 19.7357 91.0403 19.5965 91.6711 19.3183C92.3018 19.04 92.8415 18.6574 93.2901 18.1704C93.7387 17.6835 94.0821 17.1061 94.3204 16.4383C94.5727 15.7704 94.6989 15.04 94.6989 14.247C94.6989 13.5096 94.5727 12.8209 94.3204 12.1809C94.0821 11.5409 93.7387 10.9843 93.2901 10.5113C92.8415 10.0243 92.3018 9.64869 91.6711 9.38435C91.0403 9.10609 90.3394 8.96695 89.5684 8.96695C88.7974 8.96695 88.0965 9.10609 87.4657 9.38435C86.849 9.64869 86.3163 10.0243 85.8677 10.5113C85.4192 10.9843 85.0687 11.5409 84.8164 12.1809C84.5781 12.8209 84.4589 13.5096 84.4589 14.247Z" fill="#3A4344"/>
<path d="M34.1611 34.1009C33.5934 34.1009 33.0713 34.0035 32.5947 33.8087C32.1181 33.607 31.708 33.3322 31.3646 32.9843C31.0282 32.6365 30.7618 32.2261 30.5656 31.753C30.3764 31.28 30.2817 30.7687 30.2817 30.2191C30.2817 29.6696 30.3764 29.1583 30.5656 28.6852C30.7618 28.2122 31.0282 27.8017 31.3646 27.4539C31.708 27.1061 32.1181 26.8348 32.5947 26.64C33.0713 26.4383 33.5934 26.3374 34.1611 26.3374C34.7289 26.3374 35.251 26.4383 35.7276 26.64C36.2042 26.8348 36.6107 27.1061 36.9472 27.4539C37.2906 27.8017 37.5569 28.2122 37.7462 28.6852C37.9424 29.1583 38.0405 29.6696 38.0405 30.2191C38.0405 30.7687 37.9424 31.28 37.7462 31.753C37.5569 32.2261 37.2906 32.6365 36.9472 32.9843C36.6107 33.3322 36.2042 33.607 35.7276 33.8087C35.251 34.0035 34.7289 34.1009 34.1611 34.1009ZM34.1611 33.1617C34.5887 33.1617 34.9742 33.0852 35.3176 32.9322C35.661 32.7722 35.9554 32.56 36.2007 32.2957C36.446 32.0313 36.6353 31.7217 36.7684 31.367C36.9016 31.0052 36.9682 30.6226 36.9682 30.2191C36.9682 29.8157 36.9016 29.4365 36.7684 29.0817C36.6353 28.72 36.446 28.407 36.2007 28.1426C35.9554 27.8783 35.661 27.6696 35.3176 27.5165C34.9742 27.3565 34.5887 27.2765 34.1611 27.2765C33.7336 27.2765 33.3481 27.3565 33.0047 27.5165C32.6612 27.6696 32.3669 27.8783 32.1216 28.1426C31.8763 28.407 31.687 28.72 31.5538 29.0817C31.4207 29.4365 31.3541 29.8157 31.3541 30.2191C31.3541 30.6226 31.4207 31.0052 31.5538 31.367C31.687 31.7217 31.8763 32.0313 32.1216 32.2957C32.3669 32.56 32.6612 32.7722 33.0047 32.9322C33.3481 33.0852 33.7336 33.1617 34.1611 33.1617Z" fill="#3A4344"/>
<path d="M40.6482 26.5252H45.3266V27.4643H41.6574V29.7809H45.0742V30.72H41.6574V33.913H40.6482V26.5252Z" fill="#3A4344"/>
<path d="M51.7558 26.5252H54.3526C54.8783 26.5252 55.3374 26.5843 55.7299 26.7026C56.1294 26.8209 56.4728 26.9809 56.7602 27.1826C57.0545 27.3774 57.2963 27.6035 57.4856 27.8609C57.6818 28.1183 57.836 28.3826 57.9482 28.6539C58.0603 28.9252 58.1409 29.1965 58.19 29.4678C58.239 29.7391 58.2636 29.9896 58.2636 30.2191C58.2636 30.6922 58.1759 31.1513 58.0007 31.5965C57.8255 32.0348 57.5662 32.4278 57.2227 32.7757C56.8793 33.1165 56.4518 33.3913 55.9401 33.6C55.4355 33.8087 54.8503 33.913 54.1844 33.913H51.7558V26.5252ZM52.7651 32.9739H54.0372C54.4648 32.9739 54.8678 32.9183 55.2463 32.807C55.6317 32.6887 55.9682 32.5148 56.2555 32.2852C56.5429 32.0557 56.7707 31.7704 56.9389 31.4296C57.1071 31.0817 57.1912 30.6783 57.1912 30.2191C57.1912 29.9826 57.1527 29.7078 57.0756 29.3948C56.9985 29.0748 56.8513 28.7722 56.634 28.487C56.4237 28.2017 56.1294 27.9617 55.7509 27.767C55.3724 27.5652 54.8818 27.4643 54.279 27.4643H52.7651V32.9739Z" fill="#3A4344"/>
<path d="M60.8731 26.5252H65.6776V27.4643H61.8823V29.6661H65.4148V30.6052H61.8823V32.9739H65.8669V33.913H60.8731V26.5252Z" fill="#3A4344"/>
<path d="M68.6774 32.3687C68.8596 32.64 69.0909 32.8417 69.3712 32.9739C69.6586 33.0991 69.953 33.1617 70.2544 33.1617C70.4226 33.1617 70.5943 33.1374 70.7695 33.0887C70.9447 33.033 71.1024 32.953 71.2426 32.8487C71.3898 32.7443 71.5089 32.6157 71.6001 32.4626C71.6912 32.3096 71.7367 32.1322 71.7367 31.9304C71.7367 31.6452 71.6456 31.4296 71.4634 31.2835C71.2812 31.1304 71.0534 31.0052 70.78 30.9078C70.5137 30.8035 70.2193 30.7061 69.8969 30.6157C69.5815 30.5183 69.2871 30.3861 69.0138 30.2191C68.7475 30.0522 68.5232 29.8296 68.3409 29.5513C68.1587 29.2661 68.0676 28.8835 68.0676 28.4035C68.0676 28.1878 68.1132 27.9583 68.2043 27.7148C68.3024 27.4713 68.4531 27.2487 68.6563 27.047C68.8596 26.8452 69.1189 26.6783 69.4343 26.5461C69.7567 26.407 70.1422 26.3374 70.5908 26.3374C70.9973 26.3374 71.3863 26.393 71.7578 26.5043C72.1292 26.6157 72.4551 26.8417 72.7355 27.1826L71.9155 27.9235C71.7893 27.7287 71.6106 27.5722 71.3793 27.4539C71.148 27.3357 70.8852 27.2765 70.5908 27.2765C70.3104 27.2765 70.0756 27.3148 69.8864 27.3913C69.7042 27.4609 69.557 27.5548 69.4448 27.673C69.3327 27.7843 69.2521 27.9061 69.203 28.0383C69.161 28.1704 69.1399 28.2922 69.1399 28.4035C69.1399 28.7165 69.2311 28.9565 69.4133 29.1235C69.5955 29.2904 69.8198 29.4261 70.0861 29.5304C70.3595 29.6348 70.6539 29.7287 70.9693 29.8122C71.2917 29.8957 71.586 30.0139 71.8524 30.167C72.1257 30.313 72.3535 30.5148 72.5357 30.7722C72.718 31.0226 72.8091 31.3704 72.8091 31.8157C72.8091 32.1704 72.739 32.4904 72.5988 32.7757C72.4657 33.0609 72.2834 33.3009 72.0521 33.4957C71.8208 33.6904 71.5475 33.84 71.2321 33.9443C70.9167 34.0487 70.5803 34.1009 70.2228 34.1009C69.7462 34.1009 69.2941 34.0174 68.8666 33.8504C68.4391 33.6835 68.0991 33.4261 67.8468 33.0783L68.6774 32.3687Z" fill="#3A4344"/>
<path d="M75.4549 26.5252H76.4642V33.913H75.4549V26.5252Z" fill="#3A4344"/>
<path d="M85.8769 29.7809V33.4226C85.6947 33.5339 85.4879 33.6313 85.2566 33.7148C85.0253 33.7983 84.7835 33.8678 84.5312 33.9235C84.2859 33.9861 84.0336 34.0313 83.7743 34.0591C83.5219 34.087 83.2836 34.1009 83.0594 34.1009C82.4286 34.1009 81.8644 33.9965 81.3667 33.7878C80.8761 33.5791 80.4591 33.2974 80.1157 32.9426C79.7792 32.5878 79.5199 32.1774 79.3377 31.7113C79.1624 31.2383 79.0748 30.7409 79.0748 30.2191C79.0748 29.6696 79.1695 29.1583 79.3587 28.6852C79.5549 28.2122 79.8213 27.8017 80.1577 27.4539C80.5011 27.1061 80.9112 26.8348 81.3878 26.64C81.8644 26.4383 82.3865 26.3374 82.9542 26.3374C83.6411 26.3374 84.2018 26.4243 84.6364 26.5983C85.0709 26.7652 85.4354 26.9983 85.7297 27.2974L85.0148 28.0591C84.7064 27.767 84.3805 27.5652 84.0371 27.4539C83.6937 27.3357 83.3327 27.2765 82.9542 27.2765C82.5267 27.2765 82.1412 27.3565 81.7978 27.5165C81.4543 27.6696 81.16 27.8783 80.9147 28.1426C80.6693 28.407 80.4801 28.72 80.3469 29.0817C80.2138 29.4365 80.1472 29.8157 80.1472 30.2191C80.1472 30.6365 80.2208 31.0261 80.368 31.3878C80.5152 31.7426 80.7184 32.0522 80.9777 32.3165C81.2371 32.5809 81.542 32.7896 81.8924 32.9426C82.2428 33.0887 82.6248 33.1617 83.0383 33.1617C83.3958 33.1617 83.7322 33.1304 84.0476 33.0678C84.37 32.9983 84.6434 32.9009 84.8676 32.7757V30.72H83.2171V29.7809H85.8769Z" fill="#3A4344"/>
<path d="M88.8766 26.5252H90.2012L94.3014 32.5983H94.3224V26.5252H95.3317V33.913H94.0491L89.9069 27.84H89.8858V33.913H88.8766V26.5252Z" fill="#3A4344"/>
<defs>
<clipPath id="clip0_194_98">
<rect width="19.2743" height="40" fill="white"/>
</clipPath>
</defs>
</svg>
