<svg width="29" height="29" viewBox="0 0 29 29" fill="none" xmlns="http://www.w3.org/2000/svg">
<path d="M28.5993 11.6147C25.8229 11.6199 23.1148 10.8615 20.8577 9.4468V19.3098C20.8571 21.1365 20.2191 22.9194 19.029 24.4202C17.8389 25.921 16.1534 27.0681 14.1981 27.708C12.2428 28.3479 10.1107 28.4502 8.08718 28.0012C6.06361 27.5521 4.24497 26.5732 2.87449 25.1952C1.504 23.8173 0.647008 22.1061 0.418127 20.2904C0.189245 18.4747 0.599386 16.6412 1.5937 15.035C2.58801 13.4288 4.11908 12.1266 5.98215 11.3024C7.84522 10.4783 9.95146 10.1715 12.0192 10.4232V15.3822C11.0737 15.1218 10.0584 15.1294 9.11815 15.404C8.17793 15.6786 7.36089 16.2061 6.78369 16.9112C6.2065 17.6163 5.89866 18.4629 5.90414 19.3302C5.90962 20.1975 6.22813 21.0411 6.8142 21.7406C7.40027 22.44 8.22393 22.9596 9.16756 23.225C10.1112 23.4905 11.1266 23.4883 12.0687 23.2188C13.0108 22.9492 13.8315 22.4261 14.4136 21.7241C14.9957 21.0221 15.3094 20.1771 15.31 19.3098V0.0361328H20.8577C20.8546 0.446685 20.8947 0.856617 20.9775 1.26073C21.1705 2.16153 21.5713 3.01845 22.1555 3.7791C22.7398 4.53976 23.4952 5.18818 24.3755 5.68474C25.6286 6.40893 27.0976 6.79452 28.5993 6.7935V11.6147Z" fill="#286971"/>
</svg>
